<svg width="10" height="12" viewBox="0 0 10 12" fill="none" xmlns="http://www.w3.org/2000/svg">
<path d="M4.61537 12C3.78259 11.2819 3.01067 10.4946 2.30769 9.64646C1.25274 8.37271 5.79489e-07 6.47574 5.79489e-07 4.6681C-0.000456935 3.74492 0.270005 2.84235 0.777159 2.07462C1.28431 1.30689 2.00536 0.708507 2.84905 0.355202C3.69274 0.00189744 4.62114 -0.0904489 5.51677 0.0898503C6.41239 0.270149 7.23498 0.714989 7.88042 1.36807C8.31015 1.80056 8.65076 2.31491 8.88254 2.88136C9.11432 3.44781 9.23268 4.0551 9.23075 4.6681C9.23075 6.47574 7.978 8.37271 6.92306 9.64646C6.22008 10.4946 5.44816 11.2819 4.61537 12ZM4.61537 2.66849C4.09077 2.66849 3.58765 2.87916 3.2167 3.25416C2.84575 3.62916 2.63736 4.13777 2.63736 4.6681C2.63736 5.19843 2.84575 5.70704 3.2167 6.08203C3.58765 6.45703 4.09077 6.66771 4.61537 6.66771C5.13998 6.66771 5.64309 6.45703 6.01404 6.08203C6.38499 5.70704 6.59339 5.19843 6.59339 4.6681C6.59339 4.13777 6.38499 3.62916 6.01404 3.25416C5.64309 2.87916 5.13998 2.66849 4.61537 2.66849Z" fill="#08BECA"/>
</svg>
